<svg width="49" height="50" viewBox="0 0 49 50" fill="none" xmlns="http://www.w3.org/2000/svg">
<path d="M17.7012 20.9379C17.8037 21.2459 17.7797 21.582 17.6345 21.8723C17.4893 22.1626 17.2349 22.3834 16.927 22.4863C16.5509 22.6052 16.202 22.7974 15.9006 23.0518C15.5991 23.3062 15.3509 23.6178 15.1704 23.9686C14.7147 24.8236 14.406 26.2299 14.6926 28.5256C14.7326 28.8482 14.6428 29.1735 14.4429 29.4298C14.243 29.6862 13.9495 29.8527 13.6269 29.8927C13.3043 29.9326 12.979 29.8428 12.7226 29.6429C12.4662 29.4431 12.2998 29.1495 12.2598 28.8269C11.9364 26.2226 12.2377 24.2601 13.0095 22.8171C13.7935 21.3471 14.9866 20.5508 16.1504 20.1637C16.3031 20.1126 16.4643 20.0921 16.6249 20.1034C16.7855 20.1147 16.9423 20.1575 17.0863 20.2294C17.2303 20.3013 17.3588 20.4009 17.4643 20.5224C17.5698 20.644 17.6503 20.7852 17.7012 20.9379ZM29.7896 7.78631C29.9463 7.7388 30.0919 7.66034 30.2178 7.55556C30.3437 7.45078 30.4474 7.32181 30.5225 7.17629C30.5977 7.03077 30.643 6.87165 30.6556 6.70833C30.6682 6.54502 30.6479 6.38084 30.596 6.2255C30.5441 6.07015 30.4615 5.9268 30.3532 5.80393C30.2449 5.68106 30.113 5.58115 29.9654 5.51013C29.8178 5.4391 29.6575 5.3984 29.4939 5.39043C29.3302 5.38246 29.1667 5.40738 29.0129 5.46371C26.7148 6.22811 25.284 8.11461 24.4412 10.1359C24.328 10.4091 24.2243 10.6861 24.13 10.9664C23.6711 10.097 23.0839 9.30164 22.3881 8.60706C21.4464 7.66334 20.3216 6.92221 19.0829 6.42926C17.8442 5.9363 16.5177 5.70193 15.1851 5.74056C13.7641 5.77976 12.6297 6.91656 12.5905 8.33511C12.5516 9.68547 12.793 11.0292 13.2994 12.2816C13.8058 13.534 14.5664 14.6679 15.533 15.6116C13.475 16.0574 11.6152 17.1539 10.2288 18.7389C8.8424 20.3238 8.0031 22.313 7.8351 24.412L7.8204 24.5933C7.49695 28.6289 8.35686 32.6713 10.2949 36.2259L11.1769 37.838C11.2014 37.8797 11.2259 37.9213 11.2553 37.9605L13.7053 41.3954C14.2606 42.1731 14.9786 42.8204 15.8094 43.2924C16.6403 43.7644 17.564 44.0497 18.5163 44.1286C19.4686 44.2074 20.4266 44.0778 21.3237 43.7488C22.2208 43.4198 23.0355 42.8993 23.7111 42.2235C23.8148 42.1197 23.938 42.0374 24.0736 41.9812C24.2092 41.9251 24.3545 41.8961 24.5012 41.8961C24.648 41.8961 24.7933 41.9251 24.9289 41.9812C25.0644 42.0374 25.1876 42.1197 25.2913 42.2235C25.9669 42.8993 26.7816 43.4198 27.6787 43.7488C28.5759 44.0778 29.5339 44.2074 30.4862 44.1286C31.4385 44.0497 32.3622 43.7644 33.193 43.2924C34.0238 42.8204 34.7419 42.1731 35.2971 41.3954L37.7472 37.963C37.7757 37.9229 37.8019 37.8812 37.8256 37.838L38.7051 36.2259C40.6431 32.6713 41.503 28.6289 41.1796 24.5933L41.1674 24.412C41.0589 23.0591 40.6706 21.7434 40.0271 20.5484C39.3836 19.3534 38.4989 18.3051 37.429 17.4699C36.3591 16.6347 35.1274 16.0309 33.8119 15.6967C32.4964 15.3624 31.1259 15.3051 29.7871 15.5283L25.7274 16.2045C25.7519 14.5361 26.0459 12.6594 26.705 11.0767C27.391 9.42291 28.4102 8.24691 29.7871 7.78631H29.7896ZM21.3615 15.886L20.9842 15.8223C19.5456 15.5447 18.2234 14.8414 17.1892 13.8035C16.4813 13.0973 15.9255 12.2538 15.556 11.3247C15.1865 10.3956 15.0111 9.4007 15.0405 8.40126C15.0412 8.34493 15.0638 8.29108 15.1037 8.25125C15.1435 8.21141 15.1974 8.18875 15.2537 8.18811C16.2533 8.15894 17.2483 8.33474 18.1774 8.70469C19.1065 9.07464 19.95 9.6309 20.6559 10.3392C22.1431 11.8264 22.8609 13.7888 22.8046 15.7415C22.804 15.7978 22.7813 15.8516 22.7415 15.8915C22.7016 15.9313 22.6478 15.954 22.5914 15.9546C22.1803 15.966 21.7689 15.943 21.3615 15.886ZM20.5579 18.2356L20.9818 18.3066L22.8904 18.6251C23.9569 18.8028 25.0455 18.8028 26.1121 18.6251L30.1889 17.944C31.1931 17.7765 32.2212 17.8195 33.208 18.0702C34.1947 18.3209 35.1186 18.7739 35.9211 19.4004C36.7236 20.0269 37.3872 20.8133 37.8698 21.7098C38.3524 22.6062 38.6435 23.5931 38.7247 24.608L38.7394 24.7893C39.0245 28.3508 38.265 31.9182 36.554 35.0548L35.7112 36.5983L33.3029 39.9695C32.9546 40.4577 32.5041 40.8641 31.9827 41.1606C31.4614 41.457 30.8818 41.6363 30.2841 41.6859C29.6865 41.7356 29.0852 41.6545 28.5221 41.4482C27.959 41.2419 27.4476 40.9154 27.0235 40.4914C26.6922 40.1598 26.2988 39.8967 25.8658 39.7173C25.4328 39.5378 24.9687 39.4454 24.5 39.4454C24.0313 39.4454 23.5672 39.5378 23.1342 39.7173C22.7012 39.8967 22.3078 40.1598 21.9765 40.4914C21.5524 40.9149 21.0412 41.2411 20.4783 41.4471C19.9155 41.6531 19.3145 41.7342 18.7172 41.6845C18.1198 41.6348 17.5405 41.4557 17.0194 41.1595C16.4983 40.8634 16.0479 40.4573 15.6996 39.9695L13.2912 36.5983L12.4484 35.0548C10.7374 31.9182 9.97799 28.3508 10.263 24.7893L10.2777 24.608C10.3589 23.5934 10.65 22.6067 11.1324 21.7104C11.6149 20.8142 12.2783 20.0279 13.0805 19.4014C13.8827 18.7749 14.8063 18.3219 15.7928 18.071C16.7792 17.8201 17.807 17.7769 18.8111 17.944L20.5579 18.2356Z" fill="black" fill-opacity="0.5"/>
</svg>
