<svg width="50" height="50" viewBox="0 0 50 50" fill="none" xmlns="http://www.w3.org/2000/svg">
<path d="M25 15.8333L38.3333 22.5V49.1667H11.6667V22.5L25 15.8333ZM25 15.8333V0.833344M0 49.1667H50M5 49.1667V29.1667H11.6667M45 49.1667V29.1667H38.3333M21.6667 49.1667V39.1667H28.3333V49.1667M25 2.50001H35V9.16668H25M25 32.5C24.1159 32.5 23.2681 32.1488 22.643 31.5237C22.0179 30.8986 21.6667 30.0507 21.6667 29.1667C21.6667 28.2826 22.0179 27.4348 22.643 26.8097C23.2681 26.1845 24.1159 25.8333 25 25.8333C25.8841 25.8333 26.7319 26.1845 27.357 26.8097C27.9821 27.4348 28.3333 28.2826 28.3333 29.1667C28.3333 30.0507 27.9821 30.8986 27.357 31.5237C26.7319 32.1488 25.8841 32.5 25 32.5Z" stroke="black" stroke-opacity="0.7"/>
</svg>
