<svg width="50" height="42" viewBox="0 0 50 42" fill="none" xmlns="http://www.w3.org/2000/svg">
<path d="M49.9046 35.0088L45.5464 14.1513C44.9238 11.9721 42.7446 10.1043 40.2542 10.1043H34.3394V6.36861C34.3394 3.25555 31.8489 0.765106 28.7358 0.765106H21.2645C18.1514 0.765106 15.661 3.25555 15.661 6.36861V10.1043H9.74618C7.25573 10.1043 5.07659 11.9721 4.45398 14.1513L0.0956941 35.0088C-0.526918 38.1218 1.96353 41.2349 5.3879 41.2349H44.3011C48.0368 41.2349 50.5273 38.1218 49.9046 35.0088ZM18.7741 6.36861C18.7741 5.12339 20.0193 3.87817 21.2645 3.87817H28.7358C29.9811 3.87817 31.2263 5.12339 31.2263 6.36861V10.1043H18.7741V6.36861ZM34.3394 28.7826H28.1132V35.0088H21.8871V28.7826H15.661V22.5565H21.8871V16.3304H28.1132V22.5565H34.3394V28.7826Z" fill="black" fill-opacity="0.5"/>
</svg>
