<svg width="50" height="50" viewBox="0 0 50 50" fill="none" xmlns="http://www.w3.org/2000/svg">
<g clip-path="url(#clip0_831_1530)">
<path d="M27.0833 12.5L37.5 22.9167L17.6937 42.7229C17.0084 42.0373 16.6213 41.1089 16.6166 40.1395C16.6119 39.1701 16.99 38.238 17.6687 37.5458L17.6625 37.5396C16.9809 38.236 16.0506 38.6332 15.0762 38.6438C14.1018 38.6543 13.1631 38.2774 12.4667 37.5958C11.7702 36.9143 11.373 35.984 11.3624 35.0096C11.3519 34.0351 11.7289 33.0965 12.4104 32.4L12.3937 32.3833C11.6982 33.0371 10.7757 33.3949 9.82128 33.3809C8.86682 33.3669 7.9552 32.9823 7.27917 32.3083L27.0833 12.5ZM42.8875 11.6375L38.3625 7.11249C37.5811 6.33136 36.5215 5.89255 35.4167 5.89255C34.3118 5.89255 33.2522 6.33136 32.4708 7.11249L29.1667 10.4167L39.5833 20.8333L42.8875 17.5292C43.6686 16.7478 44.1074 15.6882 44.1074 14.5833C44.1074 13.4785 43.6686 12.4189 42.8875 11.6375ZM6.25 37.5V43.75H12.5C12.5 42.0924 11.8415 40.5027 10.6694 39.3306C9.49731 38.1585 7.9076 37.5 6.25 37.5Z" fill="black" fill-opacity="0.5"/>
</g>
<defs>
<clipPath id="clip0_831_1530">
<rect width="50" height="50" fill="white"/>
</clipPath>
</defs>
</svg>
